<mxfile host="app.diagrams.net" modified="2023-12-14T21:27:18.342Z" agent="Mozilla/5.0 (Windows NT 10.0; Win64; x64; rv:120.0) Gecko/20100101 Firefox/120.0" etag="ezgVe-oAh1IX4cdZz0kS" version="22.1.9" type="device" pages="5">
  <diagram name="Aperçu" id="OYxwXN0MfG-9nxOfA1U0">
    <mxGraphModel dx="1434" dy="820" grid="1" gridSize="10" guides="1" tooltips="1" connect="1" arrows="1" fold="1" page="1" pageScale="1" pageWidth="850" pageHeight="1100" math="0" shadow="0">
      <root>
        <mxCell id="0" />
        <mxCell id="1" parent="0" />
        <mxCell id="kjj2KuPNLbOGPp6rzJth-2" value="Femeture de compte (site web)&#xa;&#xa;Formulaire pour annuler l&#39;abonement&#xa;Visualisation état&#xa;J&#39;ai besoin d&#39;un identifiant&#xa;" style="swimlane;startSize=0;" vertex="1" parent="1">
          <mxGeometry x="60" y="100" width="200" height="200" as="geometry" />
        </mxCell>
        <mxCell id="kjj2KuPNLbOGPp6rzJth-9" value="&lt;div&gt;Identifiant lors du fermeture de l&#39;abonnement&lt;/div&gt;&lt;div&gt;&lt;br&gt;&lt;/div&gt;&lt;div&gt;Possibilité annuler la résiliation&lt;br&gt;&lt;/div&gt;" style="text;strokeColor=none;fillColor=none;spacingLeft=4;spacingRight=4;overflow=hidden;rotatable=0;points=[[0,0.5],[1,0.5]];portConstraint=eastwest;fontSize=12;whiteSpace=wrap;html=1;" vertex="1" parent="kjj2KuPNLbOGPp6rzJth-2">
          <mxGeometry x="10" y="40" width="170" height="100" as="geometry" />
        </mxCell>
        <mxCell id="kjj2KuPNLbOGPp6rzJth-3" value="Intégrations&#xa;avec les départements anciennement &#xa;achetés&#xa;" style="swimlane;startSize=0;" vertex="1" parent="1">
          <mxGeometry x="360" y="100" width="200" height="200" as="geometry" />
        </mxCell>
        <mxCell id="kjj2KuPNLbOGPp6rzJth-8" value="&lt;div&gt;Lookup pour chaque client de RetentionGroup (connecteur pour Power Automate)&lt;/div&gt;&lt;div&gt;Transfert données à la résolution du cas&lt;/div&gt;&lt;div&gt;Activité notification on a affecté le client à l&#39;equipe retention&lt;/div&gt;&lt;div&gt;Activité transferer la proposition pour le client vers l&#39;ancien système&lt;br&gt;&lt;/div&gt;" style="text;strokeColor=none;fillColor=none;spacingLeft=4;spacingRight=4;overflow=hidden;rotatable=0;points=[[0,0.5],[1,0.5]];portConstraint=eastwest;fontSize=12;whiteSpace=wrap;html=1;" vertex="1" parent="kjj2KuPNLbOGPp6rzJth-3">
          <mxGeometry x="10" y="30" width="180" height="170" as="geometry" />
        </mxCell>
        <mxCell id="kjj2KuPNLbOGPp6rzJth-4" value="Solution Retention Group&#xa;Membres&#xa;Activités (pour définir workload)&#xa;Processus propositions&#xa;Processus aprobations&#xa;" style="swimlane;startSize=0;" vertex="1" parent="1">
          <mxGeometry x="70" y="360" width="200" height="200" as="geometry" />
        </mxCell>
        <mxCell id="kjj2KuPNLbOGPp6rzJth-10" value="La résiliation se fait dans le nouveau système. Power automate pour faire le client Prospect. Activité intégration pour lookup. Notifier ancien système" style="text;strokeColor=none;fillColor=none;spacingLeft=4;spacingRight=4;overflow=hidden;rotatable=0;points=[[0,0.5],[1,0.5]];portConstraint=eastwest;fontSize=12;whiteSpace=wrap;html=1;" vertex="1" parent="kjj2KuPNLbOGPp6rzJth-4">
          <mxGeometry x="20" y="40" width="170" height="130" as="geometry" />
        </mxCell>
        <mxCell id="kjj2KuPNLbOGPp6rzJth-6" value="&lt;div&gt;Catalogue produits retention&lt;/div&gt;&lt;div&gt;avec&lt;/div&gt;&lt;div&gt;Réductions&lt;/div&gt;&lt;div&gt;Regroupement des produits&lt;/div&gt;&lt;div&gt;Réclamations&lt;br&gt;&lt;/div&gt;&lt;div&gt;&lt;br&gt;&lt;/div&gt;&lt;div&gt;(Sales + customisation avec produits disponibles uniquement pour la rétention + Retention = équipe spéciale de commerciaux)&lt;/div&gt;&lt;div&gt;+processus aprobation quand réduction &amp;gt; 50%&lt;/div&gt;&lt;div&gt;Le Prospect ne peut pas changer de commercial&lt;br&gt;&lt;/div&gt;" style="whiteSpace=wrap;html=1;aspect=fixed;" vertex="1" parent="1">
          <mxGeometry x="380" y="390" width="200" height="200" as="geometry" />
        </mxCell>
        <mxCell id="kjj2KuPNLbOGPp6rzJth-7" value="&lt;div&gt;Traitement des plaintes&lt;/div&gt;&lt;div&gt;&lt;br&gt;&lt;/div&gt;&lt;div&gt;(Customer Service)&lt;/div&gt;&lt;div&gt;&lt;br&gt;&lt;/div&gt;&lt;div&gt;Rétention pour la categorie &quot;Retention&quot; 28 jours&lt;br&gt;&lt;/div&gt;" style="whiteSpace=wrap;html=1;aspect=fixed;" vertex="1" parent="1">
          <mxGeometry x="610" y="320" width="190" height="190" as="geometry" />
        </mxCell>
      </root>
    </mxGraphModel>
  </diagram>
  <diagram id="mVoH4ksafBUpI_vpXGcq" name="Data Model">
    <mxGraphModel dx="1434" dy="820" grid="1" gridSize="10" guides="1" tooltips="1" connect="1" arrows="1" fold="1" page="1" pageScale="1" pageWidth="850" pageHeight="1100" math="0" shadow="0">
      <root>
        <mxCell id="0" />
        <mxCell id="1" parent="0" />
        <mxCell id="JvH06GqK49F4k3fQXp83-1" value="Résiliations" style="shape=table;startSize=30;container=1;collapsible=1;childLayout=tableLayout;fixedRows=1;rowLines=0;fontStyle=1;align=center;resizeLast=1;html=1;" vertex="1" parent="1">
          <mxGeometry x="60" y="80" width="180" height="150" as="geometry" />
        </mxCell>
        <mxCell id="JvH06GqK49F4k3fQXp83-2" value="" style="shape=tableRow;horizontal=0;startSize=0;swimlaneHead=0;swimlaneBody=0;fillColor=none;collapsible=0;dropTarget=0;points=[[0,0.5],[1,0.5]];portConstraint=eastwest;top=0;left=0;right=0;bottom=1;" vertex="1" parent="JvH06GqK49F4k3fQXp83-1">
          <mxGeometry y="30" width="180" height="30" as="geometry" />
        </mxCell>
        <mxCell id="JvH06GqK49F4k3fQXp83-3" value="PK" style="shape=partialRectangle;connectable=0;fillColor=none;top=0;left=0;bottom=0;right=0;fontStyle=1;overflow=hidden;whiteSpace=wrap;html=1;" vertex="1" parent="JvH06GqK49F4k3fQXp83-2">
          <mxGeometry width="30" height="30" as="geometry">
            <mxRectangle width="30" height="30" as="alternateBounds" />
          </mxGeometry>
        </mxCell>
        <mxCell id="JvH06GqK49F4k3fQXp83-4" value="UniqueID" style="shape=partialRectangle;connectable=0;fillColor=none;top=0;left=0;bottom=0;right=0;align=left;spacingLeft=6;fontStyle=5;overflow=hidden;whiteSpace=wrap;html=1;" vertex="1" parent="JvH06GqK49F4k3fQXp83-2">
          <mxGeometry x="30" width="150" height="30" as="geometry">
            <mxRectangle width="150" height="30" as="alternateBounds" />
          </mxGeometry>
        </mxCell>
        <mxCell id="JvH06GqK49F4k3fQXp83-5" value="" style="shape=tableRow;horizontal=0;startSize=0;swimlaneHead=0;swimlaneBody=0;fillColor=none;collapsible=0;dropTarget=0;points=[[0,0.5],[1,0.5]];portConstraint=eastwest;top=0;left=0;right=0;bottom=0;" vertex="1" parent="JvH06GqK49F4k3fQXp83-1">
          <mxGeometry y="60" width="180" height="30" as="geometry" />
        </mxCell>
        <mxCell id="JvH06GqK49F4k3fQXp83-6" value="" style="shape=partialRectangle;connectable=0;fillColor=none;top=0;left=0;bottom=0;right=0;editable=1;overflow=hidden;whiteSpace=wrap;html=1;" vertex="1" parent="JvH06GqK49F4k3fQXp83-5">
          <mxGeometry width="30" height="30" as="geometry">
            <mxRectangle width="30" height="30" as="alternateBounds" />
          </mxGeometry>
        </mxCell>
        <mxCell id="JvH06GqK49F4k3fQXp83-7" value="Customer" style="shape=partialRectangle;connectable=0;fillColor=none;top=0;left=0;bottom=0;right=0;align=left;spacingLeft=6;overflow=hidden;whiteSpace=wrap;html=1;" vertex="1" parent="JvH06GqK49F4k3fQXp83-5">
          <mxGeometry x="30" width="150" height="30" as="geometry">
            <mxRectangle width="150" height="30" as="alternateBounds" />
          </mxGeometry>
        </mxCell>
        <mxCell id="JvH06GqK49F4k3fQXp83-8" value="" style="shape=tableRow;horizontal=0;startSize=0;swimlaneHead=0;swimlaneBody=0;fillColor=none;collapsible=0;dropTarget=0;points=[[0,0.5],[1,0.5]];portConstraint=eastwest;top=0;left=0;right=0;bottom=0;" vertex="1" parent="JvH06GqK49F4k3fQXp83-1">
          <mxGeometry y="90" width="180" height="30" as="geometry" />
        </mxCell>
        <mxCell id="JvH06GqK49F4k3fQXp83-9" value="" style="shape=partialRectangle;connectable=0;fillColor=none;top=0;left=0;bottom=0;right=0;editable=1;overflow=hidden;whiteSpace=wrap;html=1;" vertex="1" parent="JvH06GqK49F4k3fQXp83-8">
          <mxGeometry width="30" height="30" as="geometry">
            <mxRectangle width="30" height="30" as="alternateBounds" />
          </mxGeometry>
        </mxCell>
        <mxCell id="JvH06GqK49F4k3fQXp83-10" value="Date" style="shape=partialRectangle;connectable=0;fillColor=none;top=0;left=0;bottom=0;right=0;align=left;spacingLeft=6;overflow=hidden;whiteSpace=wrap;html=1;" vertex="1" parent="JvH06GqK49F4k3fQXp83-8">
          <mxGeometry x="30" width="150" height="30" as="geometry">
            <mxRectangle width="150" height="30" as="alternateBounds" />
          </mxGeometry>
        </mxCell>
        <mxCell id="JvH06GqK49F4k3fQXp83-11" value="" style="shape=tableRow;horizontal=0;startSize=0;swimlaneHead=0;swimlaneBody=0;fillColor=none;collapsible=0;dropTarget=0;points=[[0,0.5],[1,0.5]];portConstraint=eastwest;top=0;left=0;right=0;bottom=0;" vertex="1" parent="JvH06GqK49F4k3fQXp83-1">
          <mxGeometry y="120" width="180" height="30" as="geometry" />
        </mxCell>
        <mxCell id="JvH06GqK49F4k3fQXp83-12" value="" style="shape=partialRectangle;connectable=0;fillColor=none;top=0;left=0;bottom=0;right=0;editable=1;overflow=hidden;whiteSpace=wrap;html=1;" vertex="1" parent="JvH06GqK49F4k3fQXp83-11">
          <mxGeometry width="30" height="30" as="geometry">
            <mxRectangle width="30" height="30" as="alternateBounds" />
          </mxGeometry>
        </mxCell>
        <mxCell id="JvH06GqK49F4k3fQXp83-13" value="UniqueID, Etat" style="shape=partialRectangle;connectable=0;fillColor=none;top=0;left=0;bottom=0;right=0;align=left;spacingLeft=6;overflow=hidden;whiteSpace=wrap;html=1;" vertex="1" parent="JvH06GqK49F4k3fQXp83-11">
          <mxGeometry x="30" width="150" height="30" as="geometry">
            <mxRectangle width="150" height="30" as="alternateBounds" />
          </mxGeometry>
        </mxCell>
        <mxCell id="JvH06GqK49F4k3fQXp83-14" value="Customer Service" style="ellipse;shape=cloud;whiteSpace=wrap;html=1;align=center;" vertex="1" parent="1">
          <mxGeometry x="380" y="70" width="270" height="220" as="geometry" />
        </mxCell>
        <mxCell id="JvH06GqK49F4k3fQXp83-15" value="Sales" style="ellipse;shape=cloud;whiteSpace=wrap;html=1;align=center;" vertex="1" parent="1">
          <mxGeometry x="110" y="360" width="320" height="230" as="geometry" />
        </mxCell>
        <mxCell id="uLO0AwORM7qYDAXwaZ-N-1" value="Power portal pour les résiliations" style="whiteSpace=wrap;html=1;align=center;" vertex="1" parent="1">
          <mxGeometry x="500" y="410" width="190" height="110" as="geometry" />
        </mxCell>
      </root>
    </mxGraphModel>
  </diagram>
  <diagram id="OdzsXjkB4dy5K0b_AH1R" name="Automation">
    <mxGraphModel dx="1434" dy="820" grid="1" gridSize="10" guides="1" tooltips="1" connect="1" arrows="1" fold="1" page="1" pageScale="1" pageWidth="850" pageHeight="1100" math="0" shadow="0">
      <root>
        <mxCell id="0" />
        <mxCell id="1" parent="0" />
        <mxCell id="VR3XeHrJBA2mnjk3VUQh-1" value="Connecteurs API" style="swimlane;fontStyle=0;childLayout=stackLayout;horizontal=1;startSize=26;horizontalStack=0;resizeParent=1;resizeParentMax=0;resizeLast=0;collapsible=1;marginBottom=0;align=center;fontSize=14;" vertex="1" parent="1">
          <mxGeometry x="70" y="50" width="320" height="420" as="geometry" />
        </mxCell>
        <mxCell id="VR3XeHrJBA2mnjk3VUQh-3" value="Item 2" style="text;strokeColor=none;fillColor=none;spacingLeft=4;spacingRight=4;overflow=hidden;rotatable=0;points=[[0,0.5],[1,0.5]];portConstraint=eastwest;fontSize=12;whiteSpace=wrap;html=1;" vertex="1" parent="VR3XeHrJBA2mnjk3VUQh-1">
          <mxGeometry y="26" width="320" height="70" as="geometry" />
        </mxCell>
        <mxCell id="VR3XeHrJBA2mnjk3VUQh-2" value="&#xa;&lt;div&gt;Lookup pour chaque client de RetentionGroup (connecteur pour Power Automate)&lt;/div&gt;&lt;div&gt;Transfert données à la résolution du cas&lt;/div&gt;&lt;div&gt;Activité notification on a affecté le client à l&#39;equipe retention&lt;/div&gt;&lt;div&gt;Activité transferer la proposition pour le client vers l&#39;ancien système&lt;br&gt;&lt;/div&gt;&#xa;&#xa;" style="text;strokeColor=none;fillColor=none;spacingLeft=4;spacingRight=4;overflow=hidden;rotatable=0;points=[[0,0.5],[1,0.5]];portConstraint=eastwest;fontSize=12;whiteSpace=wrap;html=1;" vertex="1" parent="VR3XeHrJBA2mnjk3VUQh-1">
          <mxGeometry y="96" width="320" height="294" as="geometry" />
        </mxCell>
        <mxCell id="VR3XeHrJBA2mnjk3VUQh-4" value="Item 3" style="text;strokeColor=none;fillColor=none;spacingLeft=4;spacingRight=4;overflow=hidden;rotatable=0;points=[[0,0.5],[1,0.5]];portConstraint=eastwest;fontSize=12;whiteSpace=wrap;html=1;" vertex="1" parent="VR3XeHrJBA2mnjk3VUQh-1">
          <mxGeometry y="390" width="320" height="30" as="geometry" />
        </mxCell>
        <mxCell id="6y4rzeEucqiXqJ5XvcCT-1" value="Make prospect" style="swimlane;fontStyle=0;childLayout=stackLayout;horizontal=1;startSize=26;horizontalStack=0;resizeParent=1;resizeParentMax=0;resizeLast=0;collapsible=1;marginBottom=0;align=center;fontSize=14;" vertex="1" parent="1">
          <mxGeometry x="410" y="50" width="230" height="116" as="geometry" />
        </mxCell>
        <mxCell id="6y4rzeEucqiXqJ5XvcCT-2" value="Item 1" style="text;strokeColor=none;fillColor=none;spacingLeft=4;spacingRight=4;overflow=hidden;rotatable=0;points=[[0,0.5],[1,0.5]];portConstraint=eastwest;fontSize=12;whiteSpace=wrap;html=1;" vertex="1" parent="6y4rzeEucqiXqJ5XvcCT-1">
          <mxGeometry y="26" width="230" height="30" as="geometry" />
        </mxCell>
        <mxCell id="6y4rzeEucqiXqJ5XvcCT-3" value="Item 2" style="text;strokeColor=none;fillColor=none;spacingLeft=4;spacingRight=4;overflow=hidden;rotatable=0;points=[[0,0.5],[1,0.5]];portConstraint=eastwest;fontSize=12;whiteSpace=wrap;html=1;" vertex="1" parent="6y4rzeEucqiXqJ5XvcCT-1">
          <mxGeometry y="56" width="230" height="30" as="geometry" />
        </mxCell>
        <mxCell id="6y4rzeEucqiXqJ5XvcCT-4" value="Item 3" style="text;strokeColor=none;fillColor=none;spacingLeft=4;spacingRight=4;overflow=hidden;rotatable=0;points=[[0,0.5],[1,0.5]];portConstraint=eastwest;fontSize=12;whiteSpace=wrap;html=1;" vertex="1" parent="6y4rzeEucqiXqJ5XvcCT-1">
          <mxGeometry y="86" width="230" height="30" as="geometry" />
        </mxCell>
        <mxCell id="6y4rzeEucqiXqJ5XvcCT-5" value="Notify prospect" style="swimlane;fontStyle=0;childLayout=stackLayout;horizontal=1;startSize=26;horizontalStack=0;resizeParent=1;resizeParentMax=0;resizeLast=0;collapsible=1;marginBottom=0;align=center;fontSize=14;" vertex="1" parent="1">
          <mxGeometry x="410" y="190" width="160" height="116" as="geometry" />
        </mxCell>
        <mxCell id="6y4rzeEucqiXqJ5XvcCT-6" value="Item 1" style="text;strokeColor=none;fillColor=none;spacingLeft=4;spacingRight=4;overflow=hidden;rotatable=0;points=[[0,0.5],[1,0.5]];portConstraint=eastwest;fontSize=12;whiteSpace=wrap;html=1;" vertex="1" parent="6y4rzeEucqiXqJ5XvcCT-5">
          <mxGeometry y="26" width="160" height="30" as="geometry" />
        </mxCell>
        <mxCell id="6y4rzeEucqiXqJ5XvcCT-7" value="Item 2" style="text;strokeColor=none;fillColor=none;spacingLeft=4;spacingRight=4;overflow=hidden;rotatable=0;points=[[0,0.5],[1,0.5]];portConstraint=eastwest;fontSize=12;whiteSpace=wrap;html=1;" vertex="1" parent="6y4rzeEucqiXqJ5XvcCT-5">
          <mxGeometry y="56" width="160" height="30" as="geometry" />
        </mxCell>
        <mxCell id="6y4rzeEucqiXqJ5XvcCT-8" value="Item 3" style="text;strokeColor=none;fillColor=none;spacingLeft=4;spacingRight=4;overflow=hidden;rotatable=0;points=[[0,0.5],[1,0.5]];portConstraint=eastwest;fontSize=12;whiteSpace=wrap;html=1;" vertex="1" parent="6y4rzeEucqiXqJ5XvcCT-5">
          <mxGeometry y="86" width="160" height="30" as="geometry" />
        </mxCell>
        <mxCell id="UsPFbIrmTp2AK-eZ1Q2B-1" value="Flux aprobation réduction 50%+" style="swimlane;fontStyle=0;childLayout=stackLayout;horizontal=1;startSize=26;horizontalStack=0;resizeParent=1;resizeParentMax=0;resizeLast=0;collapsible=1;marginBottom=0;align=center;fontSize=14;" vertex="1" parent="1">
          <mxGeometry x="480" y="330" width="270" height="116" as="geometry" />
        </mxCell>
        <mxCell id="UsPFbIrmTp2AK-eZ1Q2B-2" value="Item 1" style="text;strokeColor=none;fillColor=none;spacingLeft=4;spacingRight=4;overflow=hidden;rotatable=0;points=[[0,0.5],[1,0.5]];portConstraint=eastwest;fontSize=12;whiteSpace=wrap;html=1;" vertex="1" parent="UsPFbIrmTp2AK-eZ1Q2B-1">
          <mxGeometry y="26" width="270" height="30" as="geometry" />
        </mxCell>
        <mxCell id="UsPFbIrmTp2AK-eZ1Q2B-3" value="Item 2" style="text;strokeColor=none;fillColor=none;spacingLeft=4;spacingRight=4;overflow=hidden;rotatable=0;points=[[0,0.5],[1,0.5]];portConstraint=eastwest;fontSize=12;whiteSpace=wrap;html=1;" vertex="1" parent="UsPFbIrmTp2AK-eZ1Q2B-1">
          <mxGeometry y="56" width="270" height="30" as="geometry" />
        </mxCell>
        <mxCell id="UsPFbIrmTp2AK-eZ1Q2B-4" value="Item 3" style="text;strokeColor=none;fillColor=none;spacingLeft=4;spacingRight=4;overflow=hidden;rotatable=0;points=[[0,0.5],[1,0.5]];portConstraint=eastwest;fontSize=12;whiteSpace=wrap;html=1;" vertex="1" parent="UsPFbIrmTp2AK-eZ1Q2B-1">
          <mxGeometry y="86" width="270" height="30" as="geometry" />
        </mxCell>
        <mxCell id="Lu8MN_qP1ukuWifG1rTO-1" value="Supprimer après 28j +" style="swimlane;fontStyle=0;childLayout=stackLayout;horizontal=1;startSize=26;horizontalStack=0;resizeParent=1;resizeParentMax=0;resizeLast=0;collapsible=1;marginBottom=0;align=center;fontSize=14;" vertex="1" parent="1">
          <mxGeometry x="410" y="460" width="250" height="116" as="geometry" />
        </mxCell>
        <mxCell id="Lu8MN_qP1ukuWifG1rTO-2" value="Déclencheur récurrence" style="text;strokeColor=none;fillColor=none;spacingLeft=4;spacingRight=4;overflow=hidden;rotatable=0;points=[[0,0.5],[1,0.5]];portConstraint=eastwest;fontSize=12;whiteSpace=wrap;html=1;" vertex="1" parent="Lu8MN_qP1ukuWifG1rTO-1">
          <mxGeometry y="26" width="250" height="30" as="geometry" />
        </mxCell>
        <mxCell id="Lu8MN_qP1ukuWifG1rTO-3" value="Item 2" style="text;strokeColor=none;fillColor=none;spacingLeft=4;spacingRight=4;overflow=hidden;rotatable=0;points=[[0,0.5],[1,0.5]];portConstraint=eastwest;fontSize=12;whiteSpace=wrap;html=1;" vertex="1" parent="Lu8MN_qP1ukuWifG1rTO-1">
          <mxGeometry y="56" width="250" height="30" as="geometry" />
        </mxCell>
        <mxCell id="Lu8MN_qP1ukuWifG1rTO-4" value="Item 3" style="text;strokeColor=none;fillColor=none;spacingLeft=4;spacingRight=4;overflow=hidden;rotatable=0;points=[[0,0.5],[1,0.5]];portConstraint=eastwest;fontSize=12;whiteSpace=wrap;html=1;" vertex="1" parent="Lu8MN_qP1ukuWifG1rTO-1">
          <mxGeometry y="86" width="250" height="30" as="geometry" />
        </mxCell>
      </root>
    </mxGraphModel>
  </diagram>
  <diagram id="8eyy353sLCThrrtEsOBz" name="Sécurité">
    <mxGraphModel dx="1434" dy="820" grid="1" gridSize="10" guides="1" tooltips="1" connect="1" arrows="1" fold="1" page="1" pageScale="1" pageWidth="850" pageHeight="1100" math="0" shadow="0">
      <root>
        <mxCell id="0" />
        <mxCell id="1" parent="0" />
        <mxCell id="UpvsW_U-0Mh8Caq8YKgW-1" value="Role CanMakeProspect" style="swimlane;fontStyle=0;childLayout=stackLayout;horizontal=1;startSize=26;horizontalStack=0;resizeParent=1;resizeParentMax=0;resizeLast=0;collapsible=1;marginBottom=0;align=center;fontSize=14;" vertex="1" parent="1">
          <mxGeometry x="50" y="80" width="290" height="116" as="geometry" />
        </mxCell>
        <mxCell id="UpvsW_U-0Mh8Caq8YKgW-2" value="Retention Group" style="text;strokeColor=none;fillColor=none;spacingLeft=4;spacingRight=4;overflow=hidden;rotatable=0;points=[[0,0.5],[1,0.5]];portConstraint=eastwest;fontSize=12;whiteSpace=wrap;html=1;" vertex="1" parent="UpvsW_U-0Mh8Caq8YKgW-1">
          <mxGeometry y="26" width="290" height="30" as="geometry" />
        </mxCell>
        <mxCell id="UpvsW_U-0Mh8Caq8YKgW-3" value="Item 2" style="text;strokeColor=none;fillColor=none;spacingLeft=4;spacingRight=4;overflow=hidden;rotatable=0;points=[[0,0.5],[1,0.5]];portConstraint=eastwest;fontSize=12;whiteSpace=wrap;html=1;" vertex="1" parent="UpvsW_U-0Mh8Caq8YKgW-1">
          <mxGeometry y="56" width="290" height="30" as="geometry" />
        </mxCell>
        <mxCell id="UpvsW_U-0Mh8Caq8YKgW-4" value="Item 3" style="text;strokeColor=none;fillColor=none;spacingLeft=4;spacingRight=4;overflow=hidden;rotatable=0;points=[[0,0.5],[1,0.5]];portConstraint=eastwest;fontSize=12;whiteSpace=wrap;html=1;" vertex="1" parent="UpvsW_U-0Mh8Caq8YKgW-1">
          <mxGeometry y="86" width="290" height="30" as="geometry" />
        </mxCell>
      </root>
    </mxGraphModel>
  </diagram>
  <diagram id="Ppmnp7ul9upsc_2R2UND" name="ALM">
    <mxGraphModel dx="1434" dy="820" grid="1" gridSize="10" guides="1" tooltips="1" connect="1" arrows="1" fold="1" page="1" pageScale="1" pageWidth="850" pageHeight="1100" math="0" shadow="0">
      <root>
        <mxCell id="0" />
        <mxCell id="1" parent="0" />
        <mxCell id="OMTxYA04Mt3bvhoKpp8N-1" value="Dev Code 1" style="whiteSpace=wrap;html=1;align=center;" vertex="1" parent="1">
          <mxGeometry x="60" y="60" width="100" height="40" as="geometry" />
        </mxCell>
        <mxCell id="OMTxYA04Mt3bvhoKpp8N-2" value="&lt;div&gt;Dev Code 2&lt;/div&gt;" style="whiteSpace=wrap;html=1;align=center;" vertex="1" parent="1">
          <mxGeometry x="60" y="120" width="100" height="40" as="geometry" />
        </mxCell>
        <mxCell id="OMTxYA04Mt3bvhoKpp8N-3" value="Dev Click" style="whiteSpace=wrap;html=1;align=center;" vertex="1" parent="1">
          <mxGeometry x="60" y="190" width="100" height="40" as="geometry" />
        </mxCell>
        <mxCell id="OMTxYA04Mt3bvhoKpp8N-4" value="Test code" style="whiteSpace=wrap;html=1;align=center;" vertex="1" parent="1">
          <mxGeometry x="375" y="60" width="100" height="40" as="geometry" />
        </mxCell>
        <mxCell id="OMTxYA04Mt3bvhoKpp8N-5" value="Test Intégrations" style="whiteSpace=wrap;html=1;align=center;" vertex="1" parent="1">
          <mxGeometry x="370" y="130" width="100" height="40" as="geometry" />
        </mxCell>
        <mxCell id="OMTxYA04Mt3bvhoKpp8N-6" value="Prod" style="whiteSpace=wrap;html=1;align=center;" vertex="1" parent="1">
          <mxGeometry x="570" y="70" width="100" height="40" as="geometry" />
        </mxCell>
        <mxCell id="OMTxYA04Mt3bvhoKpp8N-7" value="Pipeline" style="swimlane;fontStyle=0;childLayout=stackLayout;horizontal=1;startSize=26;horizontalStack=0;resizeParent=1;resizeParentMax=0;resizeLast=0;collapsible=1;marginBottom=0;align=center;fontSize=14;" vertex="1" parent="1">
          <mxGeometry x="290" y="270" width="160" height="116" as="geometry" />
        </mxCell>
        <mxCell id="OMTxYA04Mt3bvhoKpp8N-8" value="Export all Dev" style="text;strokeColor=none;fillColor=none;spacingLeft=4;spacingRight=4;overflow=hidden;rotatable=0;points=[[0,0.5],[1,0.5]];portConstraint=eastwest;fontSize=12;whiteSpace=wrap;html=1;" vertex="1" parent="OMTxYA04Mt3bvhoKpp8N-7">
          <mxGeometry y="26" width="160" height="30" as="geometry" />
        </mxCell>
        <mxCell id="OMTxYA04Mt3bvhoKpp8N-9" value="Decompress all dev" style="text;strokeColor=none;fillColor=none;spacingLeft=4;spacingRight=4;overflow=hidden;rotatable=0;points=[[0,0.5],[1,0.5]];portConstraint=eastwest;fontSize=12;whiteSpace=wrap;html=1;" vertex="1" parent="OMTxYA04Mt3bvhoKpp8N-7">
          <mxGeometry y="56" width="160" height="30" as="geometry" />
        </mxCell>
        <mxCell id="OMTxYA04Mt3bvhoKpp8N-10" value="Pull request, check out, build solution, deploy solution" style="text;strokeColor=none;fillColor=none;spacingLeft=4;spacingRight=4;overflow=hidden;rotatable=0;points=[[0,0.5],[1,0.5]];portConstraint=eastwest;fontSize=12;whiteSpace=wrap;html=1;" vertex="1" parent="OMTxYA04Mt3bvhoKpp8N-7">
          <mxGeometry y="86" width="160" height="30" as="geometry" />
        </mxCell>
      </root>
    </mxGraphModel>
  </diagram>
</mxfile>
